<svg width="202" height="52" fill="none" xmlns="http://www.w3.org/2000/svg"><path d="M7.504 21.504l12.5-21.5 4.5 8-7.5 13.5 6.5 11.5-5 8-11-19.5z" fill="#fff"/><path d="M25.504 10.004l-4.5 8 1.5 2h9l-6-10zm-2.5 19.5l-4.5-8h23l12.5 21.5h-9l-8-13.5h-14z" fill="#fff"/><path d="M35.504 31.004h-8.5l-7.5 12h-15l-4.5 7.5 24.5.5 11-20zm3 4h-3.5l-4.5 8h12.5l-4.5-8z" fill="#fff"/><path d="M16.004 39.004l-4.5-7.5-6.5 9.5h9.5l1.5-2zm55.246-8.652c0 1.188-.419 2.134-1.255 2.838-.82.69-2.112 1.034-3.872 1.034-.85 0-1.598-.051-2.244-.154a8.78 8.78 0 01-1.914-.55v-2.992c.704.323 1.438.572 2.2.748.763.161 1.408.242 1.936.242.558 0 .961-.073 1.21-.22.25-.147.374-.352.374-.616 0-.19-.066-.36-.198-.506-.117-.147-.366-.308-.748-.484-.366-.19-.916-.44-1.65-.748-.718-.308-1.312-.623-1.782-.946a3.32 3.32 0 01-1.034-1.144c-.22-.455-.33-1.02-.33-1.694 0-1.144.44-2.002 1.32-2.574.895-.587 2.076-.88 3.542-.88.778 0 1.511.08 2.2.242.69.161 1.401.41 2.134.748l-1.056 2.508a13.503 13.503 0 00-1.76-.638c-.557-.161-1.063-.242-1.518-.242-.85 0-1.276.22-1.276.66a.73.73 0 00.176.462c.132.132.374.279.726.44.367.161.895.389 1.584.682.69.279 1.276.58 1.76.902.484.308.851.69 1.1 1.144.25.455.374 1.034.374 1.738zm7.916.924a4.66 4.66 0 001.034-.11 8.714 8.714 0 001.012-.286v2.728c-.396.176-.85.323-1.364.44-.513.117-1.122.176-1.826.176-.748 0-1.415-.117-2.002-.352-.572-.25-1.026-.667-1.364-1.254-.322-.587-.484-1.415-.484-2.486v-5.434h-1.54v-1.54l1.848-1.188 1.012-2.552h2.376v2.508h3.212v2.772h-3.212V30c0 .425.118.748.352.968.235.205.55.308.946.308zm9.753-9.592c1.569 0 2.786.367 3.652 1.1.865.733 1.298 1.804 1.298 3.212v8.008h-2.574l-.726-1.628h-.088c-.514.66-1.056 1.137-1.628 1.43-.572.279-1.357.418-2.354.418-1.071 0-1.958-.315-2.662-.946-.704-.63-1.056-1.606-1.056-2.926 0-1.276.447-2.222 1.342-2.838.909-.63 2.236-.983 3.982-1.056l2.068-.066v-.352c0-.587-.154-1.012-.462-1.276-.294-.264-.704-.396-1.232-.396s-1.078.088-1.65.264c-.572.161-1.152.367-1.738.616l-1.122-2.464a9.003 9.003 0 012.244-.814c.836-.19 1.738-.286 2.706-.286zm.132 6.864c-.924.03-1.57.198-1.936.506-.367.293-.55.697-.55 1.21 0 .455.132.785.396.99.264.205.601.308 1.012.308.616 0 1.136-.183 1.562-.55.425-.381.638-.895.638-1.54v-.968l-1.122.044zm15.142-6.842c1.276 0 2.303.352 3.08 1.056.792.69 1.188 1.811 1.188 3.366v7.876h-3.696v-6.842c0-.836-.139-1.467-.418-1.892-.279-.425-.719-.638-1.32-.638-.895 0-1.503.337-1.826 1.012-.323.66-.484 1.613-.484 2.86v5.5h-3.718V21.926h2.816l.506 1.562h.176a3.55 3.55 0 011.54-1.32c.645-.308 1.364-.462 2.156-.462zm10.457-3.168a33.366 33.366 0 01-.506 1.782c-.205.66-.425 1.32-.66 1.98-.235.66-.477 1.261-.726 1.804h-2.64c.205-.924.403-1.914.594-2.97.205-1.07.359-2.017.462-2.838h3.322l.154.242zm9.859 11.814c0 1.188-.418 2.134-1.254 2.838-.821.69-2.112 1.034-3.872 1.034-.85 0-1.598-.051-2.244-.154a8.801 8.801 0 01-1.914-.55v-2.992c.704.323 1.438.572 2.2.748.763.161 1.408.242 1.936.242.558 0 .961-.073 1.21-.22.25-.147.374-.352.374-.616 0-.19-.066-.36-.198-.506-.117-.147-.366-.308-.748-.484a23.65 23.65 0 00-1.65-.748c-.718-.308-1.312-.623-1.782-.946a3.33 3.33 0 01-1.034-1.144c-.22-.455-.33-1.02-.33-1.694 0-1.144.44-2.002 1.32-2.574.895-.587 2.076-.88 3.542-.88.778 0 1.511.08 2.2.242.69.161 1.401.41 2.134.748l-1.056 2.508a13.487 13.487 0 00-1.76-.638c-.557-.161-1.063-.242-1.518-.242-.85 0-1.276.22-1.276.66 0 .161.059.315.176.462.132.132.374.279.726.44.367.161.895.389 1.584.682.69.279 1.276.58 1.76.902.484.308.851.69 1.1 1.144.25.455.374 1.034.374 1.738zm13.566-8.668c1.569 0 2.787.367 3.652 1.1.865.733 1.298 1.804 1.298 3.212v8.008h-2.574l-.726-1.628h-.088c-.513.66-1.056 1.137-1.628 1.43-.572.279-1.357.418-2.354.418-1.071 0-1.958-.315-2.662-.946-.704-.63-1.056-1.606-1.056-2.926 0-1.276.447-2.222 1.342-2.838.909-.63 2.237-.983 3.982-1.056l2.068-.066v-.352c0-.587-.154-1.012-.462-1.276-.293-.264-.704-.396-1.232-.396s-1.078.088-1.65.264c-.572.161-1.151.367-1.738.616l-1.122-2.464a9.003 9.003 0 012.244-.814c.836-.19 1.738-.286 2.706-.286zm.132 6.864c-.924.03-1.569.198-1.936.506-.367.293-.55.697-.55 1.21 0 .455.132.785.396.99.264.205.601.308 1.012.308.616 0 1.137-.183 1.562-.55.425-.381.638-.895.638-1.54v-.968l-1.122.044zm16.638 1.804c0 1.188-.418 2.134-1.254 2.838-.821.69-2.112 1.034-3.872 1.034a14.39 14.39 0 01-2.244-.154 8.77 8.77 0 01-1.914-.55v-2.992a11.43 11.43 0 002.2.748c.763.161 1.408.242 1.936.242.557 0 .961-.073 1.21-.22.249-.147.374-.352.374-.616 0-.19-.066-.36-.198-.506-.117-.147-.367-.308-.748-.484-.367-.19-.917-.44-1.65-.748-.719-.308-1.313-.623-1.782-.946a3.32 3.32 0 01-1.034-1.144c-.22-.455-.33-1.02-.33-1.694 0-1.144.44-2.002 1.32-2.574.895-.587 2.075-.88 3.542-.88.777 0 1.511.08 2.2.242.689.161 1.401.41 2.134.748l-1.056 2.508a13.487 13.487 0 00-1.76-.638c-.557-.161-1.063-.242-1.518-.242-.851 0-1.276.22-1.276.66 0 .161.059.315.176.462.132.132.374.279.726.44.367.161.895.389 1.584.682.689.279 1.276.58 1.76.902.484.308.851.69 1.1 1.144.249.455.374 1.034.374 1.738zm11.129 0c0 1.188-.418 2.134-1.254 2.838-.821.69-2.112 1.034-3.872 1.034a14.39 14.39 0 01-2.244-.154 8.77 8.77 0 01-1.914-.55v-2.992a11.43 11.43 0 002.2.748c.763.161 1.408.242 1.936.242.557 0 .961-.073 1.21-.22.249-.147.374-.352.374-.616 0-.19-.066-.36-.198-.506-.117-.147-.367-.308-.748-.484-.367-.19-.917-.44-1.65-.748-.719-.308-1.313-.623-1.782-.946a3.32 3.32 0 01-1.034-1.144c-.22-.455-.33-1.02-.33-1.694 0-1.144.44-2.002 1.32-2.574.895-.587 2.075-.88 3.542-.88.777 0 1.511.08 2.2.242.689.161 1.401.41 2.134.748l-1.056 2.508a13.487 13.487 0 00-1.76-.638c-.557-.161-1.063-.242-1.518-.242-.851 0-1.276.22-1.276.66 0 .161.059.315.176.462.132.132.374.279.726.44.367.161.895.389 1.584.682.689.279 1.276.58 1.76.902.484.308.851.69 1.1 1.144.249.455.374 1.034.374 1.738zm7.653-8.646c1.701 0 3.051.47 4.048 1.408.997.924 1.496 2.288 1.496 4.092v1.716h-7.634c.029.792.286 1.423.77 1.892.484.47 1.173.704 2.068.704.763 0 1.459-.073 2.09-.22a9.47 9.47 0 001.98-.704v2.75a7.208 7.208 0 01-1.914.66c-.66.147-1.481.22-2.464.22-1.217 0-2.303-.22-3.256-.66a5.022 5.022 0 01-2.222-2.024c-.528-.924-.792-2.09-.792-3.498 0-1.423.242-2.603.726-3.542.484-.939 1.159-1.635 2.024-2.09.88-.47 1.907-.704 3.08-.704zm.066 2.574c-.572 0-1.049.183-1.43.55-.367.352-.587.917-.66 1.694h4.158c-.015-.63-.191-1.159-.528-1.584-.337-.44-.851-.66-1.54-.66zm13.454 6.996c.366 0 .711-.037 1.034-.11a8.77 8.77 0 001.012-.286v2.728a7.46 7.46 0 01-1.364.44c-.514.117-1.122.176-1.826.176-.748 0-1.416-.117-2.002-.352-.572-.25-1.027-.667-1.364-1.254-.323-.587-.484-1.415-.484-2.486v-5.434h-1.54v-1.54l1.848-1.188 1.012-2.552h2.376v2.508h3.212v2.772h-3.212V30c0 .425.117.748.352.968.234.205.55.308.946.308zm13.03-.924c0 1.188-.418 2.134-1.254 2.838-.821.69-2.112 1.034-3.872 1.034a14.39 14.39 0 01-2.244-.154 8.77 8.77 0 01-1.914-.55v-2.992a11.43 11.43 0 002.2.748c.763.161 1.408.242 1.936.242.557 0 .961-.073 1.21-.22.249-.147.374-.352.374-.616 0-.19-.066-.36-.198-.506-.117-.147-.367-.308-.748-.484-.367-.19-.917-.44-1.65-.748-.719-.308-1.313-.623-1.782-.946a3.32 3.32 0 01-1.034-1.144c-.22-.455-.33-1.02-.33-1.694 0-1.144.44-2.002 1.32-2.574.895-.587 2.075-.88 3.542-.88.777 0 1.511.08 2.2.242.689.161 1.401.41 2.134.748l-1.056 2.508a13.487 13.487 0 00-1.76-.638c-.557-.161-1.063-.242-1.518-.242-.851 0-1.276.22-1.276.66 0 .161.059.315.176.462.132.132.374.279.726.44.367.161.895.389 1.584.682.689.279 1.276.58 1.76.902.484.308.851.69 1.1 1.144.249.455.374 1.034.374 1.738z" fill="#fff"/></svg>